<svg width="4" height="12" viewBox="0 0 4 12" fill="none" xmlns="http://www.w3.org/2000/svg">
<path d="M1.99109 11.12C1.64443 11.12 1.35109 11 1.11109 10.76C0.871094 10.52 0.751094 10.2267 0.751094 9.88C0.751094 9.53333 0.871094 9.24 1.11109 9C1.35109 8.76 1.64443 8.64 1.99109 8.64C2.32443 8.64 2.60443 8.76 2.83109 9C3.07109 9.24 3.19109 9.53333 3.19109 9.88C3.19109 10.2267 3.07109 10.52 2.83109 10.76C2.60443 11 2.32443 11.12 1.99109 11.12ZM1.99109 2.56C1.64443 2.56 1.35109 2.44 1.11109 2.2C0.871094 1.96 0.751094 1.66667 0.751094 1.32C0.751094 0.973332 0.871094 0.679999 1.11109 0.44C1.35109 0.2 1.64443 0.0799999 1.99109 0.0799999C2.32443 0.0799999 2.60443 0.2 2.83109 0.44C3.07109 0.679999 3.19109 0.973332 3.19109 1.32C3.19109 1.66667 3.07109 1.96 2.83109 2.2C2.60443 2.44 2.32443 2.56 1.99109 2.56Z" fill="#808080"/>
</svg>
