<svg width="24" height="24" viewBox="0 0 24 24" fill="none" xmlns="http://www.w3.org/2000/svg">
<g clip-path="url(#clip0_2402_11239)">
<path d="M8.56854 8.42359C8.37994 8.28297 8.11407 8.3238 7.97473 8.5124L6.96453 9.87764C6.82482 10.0659 6.86474 10.3321 7.05315 10.4714L8.41857 11.482C8.492 11.5364 8.58081 11.5653 8.67126 11.5653C8.69213 11.5653 8.71319 11.5637 8.7337 11.5607C8.84539 11.5441 8.94555 11.4833 9.0122 11.393L10.0226 10.0272C10.1623 9.83863 10.1224 9.57277 9.93378 9.43342L8.56854 8.42359ZM8.58191 10.5465L7.89947 10.0417L8.40448 9.35926L9.08691 9.86409L8.58191 10.5465Z" fill="white"/>
<path d="M21.3804 9.63265L19.7146 9.30013C19.4851 9.25179 19.261 9.4034 19.215 9.63356L18.8825 11.2995C18.8368 11.5291 18.9858 11.7525 19.216 11.7988L20.8818 12.1313C20.9095 12.1373 20.9379 12.1399 20.965 12.1399C21.1635 12.1399 21.3409 12.0002 21.3808 11.7981L21.7133 10.132C21.7597 9.90236 21.6106 9.67897 21.3804 9.63265ZM20.6314 11.2154L19.7986 11.049L19.965 10.2162L20.7978 10.3826L20.6314 11.2154Z" fill="white"/>
<path d="M16.3694 10.4017C16.3057 10.1757 16.0695 10.0437 15.8457 10.1087L14.2108 10.5703C13.9848 10.6335 13.8535 10.8684 13.9176 11.0938L14.3792 12.7287C14.4319 12.9157 14.6022 13.0384 14.7874 13.0384C14.826 13.0384 14.8646 13.0333 14.9029 13.0223L16.5378 12.5607C16.7638 12.4973 16.8951 12.2626 16.8308 12.037L16.3694 10.4017ZM15.0809 12.089L14.8503 11.2714L15.6677 11.0409L15.8984 11.8583L15.0809 12.089Z" fill="white"/>
<path d="M24 11.5862C24 10.9631 23.6382 10.4081 22.9235 9.93291C22.929 9.8679 22.9319 9.80382 22.9319 9.7401C22.9319 8.4525 21.8839 7.4044 20.5963 7.4044C20.2434 7.4044 19.9016 7.48424 19.5877 7.63915C19.1651 6.97539 18.4276 6.55516 17.6235 6.55516C17.1806 6.55516 16.7538 6.67986 16.3848 6.91313C15.989 6.4702 15.4378 6.1895 14.8455 6.13896L13.791 4.88652C13.7188 4.80028 13.6148 4.74644 13.5026 4.73674C13.4337 4.72813 13.3689 4.74388 13.3081 4.76988C13.2673 4.78728 13.227 4.80595 13.1926 4.83525L12.4329 5.47484L12.1408 5.7202C12.0536 5.7105 11.9713 5.70573 11.8907 5.70573C11.2515 5.70573 10.6437 5.94817 10.1754 6.38139C9.85052 6.21623 9.49512 6.13054 9.13019 6.13054C8.4657 6.13054 7.83508 6.42186 7.39636 6.91313C7.02722 6.68004 6.60059 6.55516 6.15765 6.55516C5.49335 6.55516 4.86877 6.84172 4.42969 7.33482L2.50342 6.62254C2.28387 6.54015 2.03888 6.65312 1.95813 6.87358L1.49066 8.13646C1.07611 8.57262 0.849426 9.13841 0.849426 9.7401C0.849426 9.85124 0.858765 9.9622 0.878174 10.0794C0.295166 10.521 0 11.0264 0 11.5862C0 13.1931 1.30499 14.5091 2.97729 14.6136L3.92688 15.5233C4.43994 16.0149 4.66974 16.3114 5.01709 16.7611C5.13208 16.9101 5.25824 17.0733 5.41022 17.2635C6.54767 18.6879 7.68347 19.2951 9.20856 19.2951H14.9767C16.5022 19.2951 17.6382 18.6874 18.7749 17.2635C18.9261 17.0742 19.0527 16.9107 19.1677 16.7616C19.5156 16.3119 19.7452 16.0149 20.2582 15.5233L21.2087 14.6124C22.8131 14.5074 24 13.2407 24 11.5862V11.5862ZM13.4149 5.75792L13.9618 6.40776L13.312 6.95433L12.7654 6.30504L13.4149 5.75792ZM4.15228 8.13774L3.58081 9.68352L2.03503 9.11205L2.60651 7.56627L4.15228 8.13774ZM19.6714 14.9104C19.1125 15.4458 18.854 15.7796 18.496 16.2422C18.3834 16.3883 18.2595 16.548 18.1117 16.7334C17.1405 17.9498 16.2321 18.4458 14.9767 18.4458H9.20892C7.95355 18.4458 7.04517 17.9498 6.07397 16.7334C5.92529 16.5476 5.8017 16.3874 5.68927 16.2418C5.33167 15.7793 5.07349 15.4455 4.51465 14.9104L4.11584 14.5283C4.24786 14.5003 4.37531 14.4646 4.50018 14.425C4.53571 14.414 4.57013 14.4012 4.60492 14.3893C4.69757 14.3575 4.78766 14.3227 4.87555 14.2848C4.90906 14.2705 4.94257 14.2568 4.97534 14.2416C5.20367 14.1354 5.41388 14.0092 5.60248 13.8666C5.62976 13.8462 5.65503 13.8244 5.6814 13.8032C5.74896 13.7485 5.8136 13.6915 5.87476 13.6326C5.89893 13.6091 5.92346 13.5862 5.94653 13.5624C6.02509 13.4809 6.09888 13.3973 6.16443 13.309C6.74432 14.0929 7.85962 14.6246 9.13696 14.6246C10.4145 14.6246 11.5296 14.0929 12.1097 13.309C12.6898 14.0929 13.8049 14.6246 15.0824 14.6246C16.3552 14.6246 17.4668 14.0971 18.0487 13.3178C18.1132 13.4062 18.1862 13.4899 18.264 13.571C18.2856 13.5934 18.3085 13.6152 18.3311 13.6371C18.3931 13.6979 18.4585 13.7561 18.5277 13.8122C18.5515 13.8312 18.5744 13.8508 18.5986 13.8695C18.7863 14.0127 18.9965 14.1383 19.2263 14.2439C19.255 14.2577 19.2852 14.2699 19.3151 14.2826C19.4072 14.3221 19.5015 14.3587 19.5987 14.3919C19.6293 14.4023 19.6589 14.4129 19.6901 14.4228C19.8144 14.4618 19.9418 14.4975 20.0739 14.5256L19.6714 14.9104ZM21.0104 13.7735C19.615 13.7671 18.4794 13.0058 18.4794 12.0758C18.4794 11.8409 18.2897 11.651 18.0547 11.651C17.8198 11.651 17.6301 11.8409 17.6301 12.0758C17.6301 12.9964 16.463 13.7745 15.082 13.7745C13.701 13.7745 12.5341 12.9964 12.5341 12.0758C12.5341 11.8409 12.3442 11.651 12.1093 11.651C11.8746 11.651 11.6847 11.8409 11.6847 12.0758C11.6847 12.9964 10.5178 13.7745 9.13678 13.7745C7.75562 13.7745 6.58868 12.9964 6.58868 12.0758C6.58868 11.8409 6.3988 11.651 6.16406 11.651C5.92914 11.651 5.73944 11.8409 5.73944 12.0758C5.73944 12.9964 4.57233 13.7745 3.15875 13.7745C1.88507 13.7745 0.849426 12.793 0.849426 11.586C0.849426 11.2599 1.09698 10.9354 1.58533 10.6212C1.74243 10.5201 1.81494 10.3282 1.76404 10.1481C1.73767 10.056 1.72211 9.97484 1.71185 9.89793L3.68481 10.6276C3.73315 10.6459 3.78296 10.6543 3.83221 10.6543C4.00452 10.6543 4.1673 10.5485 4.23047 10.3769L5.09692 8.03465C5.11908 7.97588 5.12402 7.91399 5.11908 7.85283C5.3941 7.57213 5.76324 7.40477 6.1582 7.40477C6.54218 7.40477 6.90729 7.55327 7.18671 7.82225C7.28101 7.91234 7.40936 7.95519 7.54083 7.93724C7.67047 7.91893 7.78381 7.84221 7.84973 7.72923C8.12054 7.2603 8.6001 6.97997 9.13129 6.97997C9.44128 6.97997 9.74194 7.07903 10.0005 7.26671C10.1836 7.39909 10.4372 7.36522 10.5793 7.19072C10.9021 6.79283 11.3714 6.56468 11.8691 6.55791L12.9368 7.82646C13.0204 7.92625 13.1406 7.97752 13.262 7.97752C13.3585 7.97752 13.4551 7.94493 13.535 7.87828L14.5966 6.98473C14.6155 6.98344 14.6332 6.97997 14.6519 6.97997C15.1831 6.97997 15.6627 7.25993 15.9335 7.72923C15.9988 7.84258 16.1127 7.91893 16.2422 7.93724C16.3744 7.9572 16.5022 7.9127 16.5965 7.82225C16.8759 7.5529 17.241 7.40477 17.625 7.40477C18.2459 7.40477 18.8057 7.80174 19.0175 8.39171C19.0638 8.5208 19.1691 8.61876 19.3011 8.65666C19.4321 8.69402 19.5738 8.666 19.6816 8.58067C19.9508 8.36699 20.2676 8.25365 20.5977 8.25365C21.4173 8.25365 22.084 8.92033 22.084 9.73991C22.084 9.8419 22.0726 9.94499 22.0485 10.056C22.0085 10.2365 22.0909 10.4216 22.251 10.5141C22.849 10.8594 23.1522 11.2196 23.1522 11.5856C23.1508 12.8274 22.2288 13.7677 21.0104 13.7735V13.7735Z" fill="white"/>
</g>
<defs>
<clipPath id="clip0_2402_11239">
<rect width="24" height="24" fill="white"/>
</clipPath>
</defs>
</svg>
