<svg width="24" height="24" viewBox="0 0 24 24" fill="none" xmlns="http://www.w3.org/2000/svg">
<g clip-path="url(#clip0_2402_15024)">
<path d="M4.82135 12.3867C4.09515 12.3867 3.50391 12.9778 3.50391 13.7042C3.50391 14.4305 4.09497 15.0216 4.82135 15.0216C5.54773 15.0216 6.13879 14.4305 6.13879 13.7042C6.13879 12.9774 5.54773 12.3867 4.82135 12.3867ZM4.82135 14.1432C4.57892 14.1432 4.38226 13.9464 4.38226 13.7042C4.38226 13.4617 4.57892 13.2649 4.82135 13.2649C5.06378 13.2649 5.26044 13.4617 5.26044 13.7042C5.26044 13.9464 5.06378 14.1432 4.82135 14.1432Z" fill="#999999"/>
<path d="M23.6388 2.76785C23.3647 2.35586 22.973 2.05648 22.5063 1.90304C22.4202 1.87503 22.3592 1.81405 22.331 1.72708C22.1778 1.26071 21.8788 0.869411 21.466 0.594936C20.6813 0.0745502 19.6213 0.121608 18.887 0.709194C18.3311 1.15487 18.0321 1.81625 18.0658 2.52413C18.0909 3.04708 17.9323 3.50723 17.6201 3.81942L14.9182 6.52133L14.4335 6.52883C13.683 6.53982 12.9822 6.83316 12.46 7.35519C10.7646 9.05111 8.51536 10.0976 5.95536 10.3812C4.43284 10.5504 3.00041 11.2436 1.92063 12.3336C-0.560995 14.8396 -0.649618 18.9972 1.72379 21.6008C2.97843 22.9776 4.69193 23.7591 6.54844 23.8023C6.60246 23.8036 6.65611 23.8045 6.71012 23.8045C8.50749 23.8045 10.1915 23.1076 11.4667 21.8322C12.4437 20.8552 13.0884 19.6227 13.3312 18.2666C13.7611 15.8689 14.9766 13.6128 16.8468 11.7429C16.9684 11.6214 17.0783 11.4851 17.1929 11.3145L17.6509 10.6308H16.3094C16.4429 10.55 16.5711 10.4586 16.6844 10.3453L20.4152 6.61489C20.727 6.3027 21.1793 6.14779 21.711 6.16922C22.4242 6.19686 23.0798 5.9039 23.5256 5.34762C24.1134 4.613 24.1595 3.55246 23.6388 2.76785ZM12.4662 18.1106C12.2555 19.2898 11.6946 20.3612 10.8454 21.211C9.7028 22.3532 8.19657 22.9582 6.56822 22.9239C4.95414 22.8866 3.46403 22.2065 2.37235 21.0088C0.308939 18.7453 0.385843 15.1308 2.54411 12.9514C3.49626 11.9901 4.70896 11.4031 6.05094 11.2542C8.81144 10.9481 11.2418 9.81466 13.08 7.9761C13.2891 7.76754 13.5403 7.61209 13.8159 7.51632L12.9399 10.4358L14.4822 9.92196V11.508H15.8518C14.0655 13.4279 12.8987 15.6999 12.4662 18.1106ZM22.8395 4.79776C22.572 5.13192 22.1737 5.31466 21.7522 5.29104C20.974 5.25497 20.2821 5.50344 19.7934 5.99325L16.063 9.72348C15.8742 9.91281 15.6252 10.0199 15.3604 10.034V8.70339L14.2678 9.06796L14.5485 8.13302L18.241 4.44052C18.7303 3.95181 18.98 3.25619 18.9432 2.48202C18.9225 2.05813 19.1022 1.66207 19.436 1.39419C19.8679 1.04776 20.5174 1.01882 20.9799 1.32663C21.1993 1.47238 21.3606 1.67489 21.4589 1.91146C21.0154 2.01821 20.6078 2.25589 20.2991 2.60012C20.1371 2.78048 20.1521 3.05844 20.3324 3.22012C20.4163 3.29556 20.5214 3.33255 20.6258 3.33255C20.7457 3.33255 20.866 3.28329 20.9524 3.18679C21.2086 2.90133 21.5743 2.73306 21.9564 2.72573C22.0165 2.72427 22.0736 2.71127 22.1254 2.68783C22.1618 2.70413 22.1948 2.72482 22.2331 2.73745C22.5105 2.82827 22.7438 3.00698 22.9074 3.25381C23.2145 3.71633 23.1856 4.36581 22.8395 4.79776Z" fill="#999999"/>
<path d="M11.658 16.4385C11.4143 16.3929 11.1907 16.5553 11.1486 16.7937C11.0664 17.254 10.9225 17.7026 10.72 18.1291C10.616 18.3483 10.7095 18.6099 10.9285 18.7139C10.9897 18.7425 11.0532 18.7566 11.1166 18.7566C11.2808 18.7566 11.4385 18.6639 11.5135 18.5059C11.7494 18.0091 11.9175 17.4853 12.0132 16.9484C12.0559 16.7089 11.8964 16.4811 11.658 16.4385Z" fill="#999999"/>
<path d="M9.97272 19.3025C9.03705 20.4372 7.66614 21.2273 6.21173 21.4701C5.97241 21.51 5.81073 21.7361 5.85083 21.9751C5.88635 22.1897 6.07257 22.342 6.28333 22.342C6.3075 22.342 6.33112 22.3404 6.35584 22.336C8.0166 22.0589 9.58252 21.1564 10.6504 19.8606C10.8049 19.6736 10.7782 19.3969 10.5907 19.2428C10.4041 19.0882 10.1265 19.1155 9.97272 19.3025Z" fill="#999999"/>
</g>
<defs>
<clipPath id="clip0_2402_15024">
<rect width="24" height="24" fill="white"/>
</clipPath>
</defs>
</svg>
