<svg width="24" height="24" viewBox="0 0 24 24" fill="none" xmlns="http://www.w3.org/2000/svg">
<g clip-path="url(#clip0_2402_15835)">
<path d="M7.29335 8.33314C7.37136 8.41114 7.47371 8.45032 7.57625 8.45032C7.67861 8.45032 7.78096 8.41114 7.85897 8.33314C8.01534 8.17676 8.01534 7.92389 7.85897 7.76752C7.45302 7.36121 7.45302 6.70038 7.85897 6.29406C8.20705 5.94598 8.39895 5.48364 8.39895 4.99163C8.39895 4.49962 8.20742 4.0371 7.85897 3.68919C7.7026 3.53264 7.44973 3.53264 7.29335 3.68919C7.13698 3.84557 7.13698 4.09844 7.29335 4.25463C7.49019 4.45147 7.59914 4.71312 7.59914 4.99145C7.59914 5.26995 7.49056 5.53143 7.29335 5.72827C6.57539 6.44623 6.57539 7.61518 7.29335 8.33314Z" fill="white"/>
<path d="M16.0932 8.33314C16.1712 8.41114 16.2735 8.45032 16.3759 8.45032C16.4784 8.45032 16.5808 8.41114 16.6588 8.33314C16.8151 8.17676 16.8151 7.92389 16.6588 7.76752C16.2528 7.36121 16.2528 6.70038 16.6588 6.29406C17.0067 5.94598 17.1987 5.48364 17.1987 4.99163C17.1987 4.49962 17.0072 4.0371 16.6588 3.68919C16.5024 3.53264 16.2495 3.53264 16.0932 3.68919C15.9368 3.84557 15.9368 4.09844 16.0932 4.25463C16.29 4.45147 16.3988 4.71312 16.3988 4.99145C16.3988 5.26995 16.2904 5.53143 16.0932 5.72827C15.3752 6.44623 15.3752 7.61518 16.0932 8.33314V8.33314Z" fill="white"/>
<path d="M11.693 5.93316C11.771 6.01116 11.8735 6.05035 11.9759 6.05035C12.0783 6.05035 12.1806 6.01116 12.2586 5.93316C12.4152 5.77679 12.4152 5.52392 12.2586 5.36754C11.8527 4.96123 11.8527 4.3004 12.2586 3.89391C12.6067 3.54601 12.7986 3.08348 12.7986 2.59148C12.7986 2.09966 12.6071 1.63713 12.2586 1.28923C12.1022 1.13268 11.8494 1.13268 11.6932 1.28923C11.5366 1.4456 11.5366 1.69829 11.6932 1.85466C11.8898 2.0515 11.9988 2.31316 11.9988 2.59148C11.9988 2.8698 11.8904 3.13146 11.6932 3.3283C10.975 4.04625 10.975 5.2152 11.693 5.93316V5.93316Z" fill="white"/>
<path d="M10.0912 11.4551C10.1203 11.4551 10.15 11.452 10.1797 11.4456C10.7548 11.3159 11.3495 11.2502 11.9481 11.2502H11.9532C12.1741 11.2502 12.3531 11.0715 12.3531 10.8506C12.3531 10.6295 12.1744 10.4504 11.9532 10.4504C11.9516 10.4504 11.9496 10.4504 11.9476 10.4504C11.2904 10.4504 10.6363 10.5227 10.0037 10.6652C9.788 10.7135 9.65287 10.9276 9.70121 11.1431C9.74369 11.3291 9.9083 11.4551 10.0912 11.4551Z" fill="white"/>
<path d="M3.88141 18.0436C3.90594 18.0484 3.92993 18.0504 3.95337 18.0504C4.14306 18.0504 4.31152 17.9151 4.34668 17.7223C4.76233 15.4431 6.13581 13.4151 8.02107 12.2983C8.21095 12.1861 8.27394 11.9403 8.16151 11.7503C8.04872 11.5604 7.80354 11.4976 7.61347 11.61C5.53174 12.843 4.01672 15.0744 3.55987 17.5783C3.51995 17.7961 3.66388 18.0039 3.88141 18.0436Z" fill="white"/>
<path d="M22.2027 17.4996C21.478 13.2431 18.1599 9.86115 13.9358 9.04194C13.9428 8.97803 13.953 8.91358 13.953 8.85004C13.953 7.74719 13.056 6.84998 11.9532 6.84998C10.8503 6.84998 9.95309 7.74719 9.95309 8.85004C9.95309 8.91358 9.96316 8.97803 9.97031 9.04194C5.74623 9.86115 2.42835 13.2431 1.70344 17.4996C0.867556 17.9727 -0.046875 18.6691 -0.046875 19.4504C-0.046875 21.4844 6.15786 22.8503 11.9532 22.8503C17.7483 22.8503 23.9532 21.4844 23.9532 19.4504C23.9532 18.6691 23.0388 17.9727 22.2027 17.4996ZM10.7556 8.91907C10.754 8.89582 10.7531 8.87275 10.7531 8.85023C10.7531 8.18866 11.2916 7.65015 11.9532 7.65015C12.6147 7.65015 13.1532 8.18866 13.1532 8.85023C13.1532 8.87311 13.1525 8.89582 13.1509 8.91907C13.132 8.91706 13.1131 8.91633 13.0948 8.91431C12.9573 8.89911 12.8187 8.88831 12.6795 8.87861C12.6285 8.87513 12.5776 8.86982 12.5265 8.86707C12.3368 8.85663 12.146 8.85059 11.9537 8.85059C11.7613 8.85059 11.5705 8.85663 11.3808 8.86707C11.3297 8.86982 11.2788 8.87513 11.2277 8.87861C11.0885 8.88831 10.9501 8.89948 10.8124 8.91431C10.7932 8.91633 10.7743 8.91669 10.7556 8.91907V8.91907ZM10.5127 9.75843C10.7274 9.72639 10.9435 9.70313 11.1603 9.68555C11.2048 9.68189 11.2491 9.67878 11.2934 9.67567C11.7327 9.646 12.174 9.646 12.6131 9.67567C12.6576 9.67878 12.7019 9.68189 12.7464 9.68555C12.9632 9.70313 13.1792 9.72639 13.3938 9.75843C17.5611 10.3883 20.8567 13.7071 21.4547 17.8849C21.473 18.0132 21.4879 18.1419 21.501 18.2708C21.5054 18.3152 21.5115 18.3591 21.5155 18.4036C21.5311 18.5807 21.5426 18.7579 21.5483 18.9352C15.2643 20.3916 8.6426 20.3916 2.35859 18.9352C2.36463 18.7579 2.3758 18.5807 2.39136 18.4036C2.39539 18.3591 2.40107 18.3152 2.40565 18.2708C2.41883 18.1416 2.43366 18.0127 2.45216 17.8849C3.05 13.7071 6.34554 10.3879 10.5127 9.75843V9.75843ZM11.9532 22.0503C5.1147 22.0503 0.753115 20.3427 0.753115 19.4504C0.753115 19.2972 0.94263 18.9597 1.57874 18.5193C1.57709 18.542 1.57782 18.5644 1.57618 18.5873C1.56263 18.8064 1.55311 19.0273 1.55311 19.2505V19.5656L1.85981 19.6396C5.16158 20.4317 8.55746 20.8285 11.953 20.8285C15.3487 20.8285 18.7447 20.432 22.0463 19.6396L22.353 19.5656V19.2505C22.353 19.0273 22.3435 18.8068 22.3298 18.5873C22.3283 18.5644 22.329 18.542 22.3274 18.5193C22.9635 18.9597 23.153 19.2972 23.153 19.4504C23.1532 20.3427 18.7916 22.0503 11.9532 22.0503V22.0503Z" fill="white"/>
</g>
<defs>
<clipPath id="clip0_2402_15835">
<rect width="24" height="24" fill="white"/>
</clipPath>
</defs>
</svg>
