<svg width="24" height="24" viewBox="0 0 24 24" fill="none" xmlns="http://www.w3.org/2000/svg">
<path d="M19.9111 2.61823H19.699V2.25677C19.699 1.49414 19.0794 0.873596 18.3519 0.873596C18.3516 0.873596 18.351 0.873596 18.3499 0.873596L5.66071 0C4.89697 0 4.27643 0.621094 4.27643 1.38373V2.61823H4.06476C3.21936 2.61823 2.53125 3.30615 2.53125 4.15173V6.10895C2.53125 6.95435 3.21918 7.64246 4.06476 7.64246H4.11292L5.59735 22.6163C5.59735 23.3789 6.2179 24 6.98145 24H17.0178C17.2084 24 17.3904 23.9612 17.556 23.8916C18.0524 23.6836 18.401 23.2006 18.3995 22.6663L19.8865 7.64191H19.9116C20.757 7.64191 21.4451 6.95398 21.4451 6.1084V4.15173C21.4446 3.30634 20.7565 2.61823 19.9111 2.61823ZM5.29871 1.38373C5.29871 1.18433 5.46075 1.02228 5.62537 1.02136L18.3153 1.89496C18.5147 1.89496 18.6771 2.05701 18.6771 2.25677V2.61823H5.29871V1.38373ZM18.4426 11.7078L15.698 12.1976C14.7693 11.1134 13.4401 10.4974 12.0048 10.4974C10.5688 10.4974 9.23987 11.1134 8.31097 12.1981L5.55634 11.7074L5.14178 7.64246H18.8575L18.4426 11.7078ZM18.353 12.7625L17.9562 16.7781L15.2715 16.2839L15.0815 16.5364C14.3443 17.5164 13.223 18.0787 12.0053 18.0787C10.7871 18.0787 9.66559 17.5164 8.92859 16.5364L8.73834 16.2845L6.04449 16.7787L5.64679 12.7625L8.73944 13.3125L8.92859 13.062C9.66577 12.082 10.7873 11.5197 12.0053 11.5197C13.223 11.5197 14.3445 12.082 15.0815 13.062L15.2706 13.313L18.353 12.7625ZM17.0173 22.9775H6.9809C6.93201 22.9775 6.88495 22.9675 6.84192 22.9479C6.71265 22.8896 6.61908 22.7507 6.61707 22.5656L6.61047 22.4993L6.15198 17.7975L8.31226 17.4012C9.24097 18.485 10.5696 19.1005 12.0049 19.1005C13.4398 19.1005 14.7684 18.485 15.6971 17.4018L17.8477 17.7975L17.3795 22.6163C17.3787 22.812 17.2136 22.9775 17.0173 22.9775ZM20.4223 6.10895C20.4223 6.39111 20.1929 6.62018 19.9111 6.62018H4.06476C3.78314 6.62018 3.55371 6.39111 3.55371 6.10895V4.15173C3.55371 3.86957 3.78314 3.6405 4.06476 3.6405H19.9111C20.1929 3.6405 20.4223 3.86957 20.4223 4.15173V6.10895Z" fill="#999999"/>
<path d="M11.9879 12.2681C10.4376 12.2681 9.17651 13.4147 9.17651 14.8239C9.17651 16.2332 10.4376 17.3798 11.9879 17.3798C13.5383 17.3798 14.7995 16.2332 14.7995 14.8239C14.7995 13.4147 13.5377 12.2681 11.9879 12.2681ZM11.9879 16.3575C11.0013 16.3575 10.1988 15.6694 10.1988 14.8239C10.1988 13.9785 11.0013 13.2903 11.9879 13.2903C12.9745 13.2903 13.777 13.9785 13.777 14.8239C13.777 15.6694 12.9739 16.3575 11.9879 16.3575Z" fill="#999999"/>
</svg>
