<svg width="24" height="24" viewBox="0 0 24 24" fill="none" xmlns="http://www.w3.org/2000/svg">
<g clip-path="url(#clip0_2402_14637)">
<path d="M4.63245 16.2938C4.04102 15.7038 3.08026 15.7038 2.48993 16.2938C2.2041 16.5796 2.0459 16.9605 2.0459 17.3655C2.0459 17.7702 2.2041 18.151 2.48993 18.4369C2.78546 18.7324 3.17328 18.8798 3.5611 18.8798C3.9491 18.8798 4.3371 18.7324 4.63245 18.4369C4.91828 18.151 5.07648 17.7702 5.07648 17.3655C5.07648 16.9605 4.91883 16.5802 4.63245 16.2938V16.2938ZM3.91834 17.7226C3.72077 17.9201 3.40161 17.9201 3.20422 17.7226C3.10919 17.6272 3.05609 17.5005 3.05609 17.3655C3.05609 17.2302 3.10864 17.1039 3.20422 17.0085C3.30274 16.9098 3.43201 16.8609 3.56128 16.8609C3.69055 16.8609 3.81983 16.9099 3.91834 17.0085V17.009C4.01392 17.1039 4.06629 17.2302 4.06629 17.3655C4.06629 17.4999 4.01373 17.6266 3.91834 17.7226V17.7226Z" fill="white"/>
<path d="M23.9376 6.91259C23.8612 6.54144 23.6139 6.22924 23.2764 6.08038C23.0486 5.97875 22.9638 5.74639 22.8501 5.37634C22.7344 4.99639 22.5238 4.29437 21.7288 4.36193C21.4596 4.38867 21.2232 4.31195 21.0615 4.151C20.9004 3.98986 20.8252 3.75238 20.8504 3.48376C20.9035 2.90991 20.7252 2.38604 20.3474 2.00775C19.9909 1.65179 19.5035 1.47949 18.9423 1.49871C18.9357 1.46685 18.9291 1.43151 18.9236 1.40167C18.8513 1.01971 18.7024 0.232907 17.6043 0.0847746C17.4104 0.0232512 16.8785 -0.105106 16.437 0.165707C16.2265 0.295529 15.9642 0.560666 15.9091 1.13891L15.8976 4.30242H10.7406C9.93751 4.30242 9.15858 4.39984 8.40601 4.57012C8.1363 3.55371 7.6897 2.59222 7.05231 1.71222L6.80183 1.36633L6.41895 1.55511C6.323 1.60272 4.06073 2.74365 3.43689 4.70599C3.18439 5.49938 3.23218 6.30615 3.5777 7.11016C1.47107 9.0487 0.140625 11.8191 0.140625 14.9007V24H9.16975C12.02 24 14.699 22.8902 16.7142 20.8744C16.9587 20.6299 17.189 20.3745 17.4068 20.1114C17.629 20.1295 17.8594 20.1425 18.107 20.1425C19.5317 20.1425 21.3435 19.7931 23.1442 18.4883L23.4901 18.2378L23.3002 17.855C23.2421 17.7372 21.9436 15.1785 19.7316 14.7715C19.7954 14.2967 19.8399 13.8173 19.8393 13.3304V8.20367L23.0299 8.23351L23.0704 8.22692C23.3002 8.19158 23.5064 8.0819 23.6681 7.90923L23.6695 7.90777C23.9118 7.64611 24.0119 7.27386 23.9376 6.91259ZM4.39655 6.41674C4.25043 5.9425 4.25208 5.47979 4.39911 5.01617C4.75654 3.88623 5.89106 3.05218 6.49073 2.6781C6.92451 3.35394 7.24366 4.07611 7.44471 4.83325C6.98823 4.98339 6.54877 5.16815 6.1214 5.37634C6.01795 5.42633 5.9123 5.47283 5.81086 5.5263C5.66932 5.60119 5.53345 5.68341 5.39557 5.76379C5.25477 5.84619 5.11487 5.92895 4.97791 6.01776C4.85358 6.09869 4.73291 6.18292 4.6128 6.26879C4.54102 6.31915 4.46631 6.36419 4.39655 6.41674ZM19.5539 15.7608C20.8272 15.9988 21.7724 17.2771 22.1768 17.9262C20.7191 18.8648 19.277 19.1294 18.1214 19.1319C18.7784 18.1223 19.2492 17.0121 19.5306 15.8432C19.5377 15.8154 19.5474 15.7886 19.5539 15.7608V15.7608ZM22.929 7.22241L18.8291 7.18487V13.331C18.8291 13.9153 18.7705 14.49 18.67 15.0533L18.6568 15.1245C18.6281 15.277 18.5933 15.429 18.5568 15.5801C18.5413 15.6453 18.5252 15.7099 18.5085 15.7745C18.1765 17.0383 17.5862 18.2375 16.7749 19.2739L16.5795 19.5234C16.3956 19.7426 16.2052 19.9568 16.0007 20.1612C14.1762 21.9856 11.7503 22.9909 9.1703 22.9909H1.15082V14.9013C1.15082 11.9672 2.4787 9.3402 4.56116 7.57928C5.35071 6.91259 6.22706 6.38433 7.17866 6.00494C7.18616 6.00201 7.19367 5.99999 7.20081 5.99707C7.51447 5.87274 7.83619 5.7647 8.1656 5.67315C8.98628 5.4439 9.8476 5.31152 10.741 5.31152H16.9041L16.9173 1.19037C16.9279 1.08233 16.9547 1.03289 16.9668 1.02575C17.0167 0.994442 17.1916 1.00708 17.3088 1.04992L17.435 1.08123C17.8442 1.12664 17.8663 1.24292 17.931 1.58935C17.9835 1.86273 18.122 2.58691 18.9659 2.51074C19.2341 2.48547 19.4715 2.56073 19.6337 2.72186C19.7948 2.88336 19.8701 3.12085 19.8448 3.38946C19.7917 3.96331 19.9701 4.48718 20.3478 4.86492C20.7146 5.23114 21.223 5.40728 21.7811 5.37158C21.815 5.44482 21.8555 5.57647 21.8848 5.67114C22.0106 6.08312 22.201 6.70642 22.8662 7.00305C22.9142 7.0241 22.94 7.07574 22.9481 7.11657C22.9527 7.13745 22.9587 7.1889 22.9283 7.22167L22.929 7.22241ZM22.9977 7.29949V7.28539L23.2991 7.56481L22.9977 7.29949Z" fill="white"/>
<path d="M3.56104 12.5742V13.5846C7.46045 13.5846 10.6324 16.7565 10.6324 20.6558H11.6426C11.6426 16.1999 8.01709 12.5742 3.56104 12.5742Z" fill="white"/>
<path d="M5.20508 10.9307V11.9409C9.1045 11.9409 12.2764 15.113 12.2764 19.0122H13.2866C13.2866 14.5558 9.66114 10.9307 5.20508 10.9307V10.9307Z" fill="white"/>
<path d="M6.77539 9.35999V10.3702C10.6748 10.3702 13.8467 13.5421 13.8467 17.4415H14.8569C14.8569 12.9855 11.232 9.35999 6.77539 9.35999V9.35999Z" fill="white"/>
<path d="M8.41968 7.71588V8.72608C12.3191 8.72608 15.491 11.898 15.491 15.7974H16.5012C16.5012 11.3414 12.8761 7.71588 8.41968 7.71588V7.71588Z" fill="white"/>
</g>
<defs>
<clipPath id="clip0_2402_14637">
<rect width="24" height="24" fill="white"/>
</clipPath>
</defs>
</svg>
