<svg width="24" height="24" viewBox="0 0 24 24" fill="none" xmlns="http://www.w3.org/2000/svg">
<g clip-path="url(#clip0_2402_16387)">
<path d="M19.3526 7.3028C17.6067 5.92914 15.1337 6.30945 13.1746 6.79431C12.8595 6.8725 12.5363 6.9104 12.2124 6.9245C12.161 6.66577 12.0969 6.40631 12.0185 6.14886L13.5326 5.92328C15.4719 5.6347 16.9693 4.13727 17.2581 2.198L17.4815 0.697266C17.5009 0.645081 17.5082 0.590698 17.5054 0.535583L17.5847 0L15.3867 0.32721C13.4475 0.616333 11.95 2.11322 11.6613 4.05267L11.5296 4.93781C11.0803 4.07538 10.4339 3.3208 9.54237 2.84509C9.34406 2.73926 9.09925 2.8147 8.99342 3.01208C8.88795 3.21002 8.96284 3.45538 9.16041 3.56085C10.3982 4.22076 11.081 5.55615 11.3795 6.89813C11.1901 6.87433 11.0024 6.841 10.8171 6.79486C8.85792 6.30981 6.38416 5.92914 4.63898 7.30334C3.07563 8.53381 2.32453 10.9695 2.34412 14.7491C2.35841 17.5417 3.96644 20.7631 6.25489 22.5831C7.76606 23.7854 9.39112 24.2358 10.9517 23.8835C11.6353 23.7294 12.3563 23.7294 13.0395 23.8835C13.385 23.9614 13.7329 23.9998 14.0819 23.9998C15.3129 23.9998 16.559 23.5197 17.7363 22.5831C20.0248 20.7627 21.6325 17.5413 21.6471 14.7491C21.6669 10.9689 20.9161 8.53345 19.3526 7.3028ZM13.4128 5.12109L13.0573 5.17419L16.5082 1.72321L16.4551 2.0788C16.22 3.66248 14.9971 4.88544 13.4128 5.12109ZM15.5063 1.12958L16.0338 1.05103L12.3851 4.69977L12.4638 4.17188C12.6993 2.5882 13.9222 1.3656 15.5063 1.12958ZM17.2319 21.9485C16.3173 22.6767 14.8795 23.4675 13.2182 23.092C12.8185 23.0021 12.4072 22.957 11.9958 22.957C11.5847 22.957 11.1735 23.0021 10.7738 23.092C9.11573 23.4666 7.67469 22.6769 6.76008 21.9485C4.68439 20.2971 3.16846 17.2679 3.15546 14.7448C3.13715 11.2313 3.78681 9.00568 5.14069 7.94019C6.2873 7.03802 7.97883 6.9278 10.6229 7.58167C10.9166 7.65436 11.2161 7.69446 11.5173 7.71954C11.5404 7.92719 11.5558 8.1319 11.5624 8.33075C11.5692 8.54993 11.7493 8.72314 11.967 8.72314H11.98C12.2042 8.71582 12.3794 8.52887 12.3724 8.30511C12.3664 8.11743 12.3518 7.92389 12.332 7.72852C12.6812 7.70819 13.0289 7.66608 13.3691 7.58221C16.0131 6.92853 17.7043 7.03894 18.8514 7.94055C20.2057 9.00623 20.8548 11.2322 20.8367 14.7455C20.824 17.2674 19.3076 20.2971 17.2319 21.9485Z" fill="#999999"/>
<path d="M8.02069 8.18552C6.00854 8.18552 4.37158 10.0045 4.37158 12.24C4.37158 12.464 4.55286 12.6456 4.77698 12.6456C5.00128 12.6456 5.18256 12.464 5.18256 12.24C5.18256 10.4516 6.45605 8.99631 8.02069 8.99631C8.245 8.99631 8.42627 8.81467 8.42627 8.59091C8.42627 8.36716 8.245 8.18552 8.02069 8.18552Z" fill="#999999"/>
<path d="M13.1616 8.30435C12.8324 8.63358 12.3953 8.81485 11.931 8.81485C11.4668 8.81485 11.0288 8.63358 10.7 8.30435C10.5414 8.14578 10.2852 8.14578 10.1267 8.30435C9.96828 8.46292 9.9681 8.71945 10.1267 8.87766C10.6088 9.35959 11.2502 9.62564 11.931 9.62564C12.6118 9.62564 13.2528 9.36014 13.7349 8.87766C13.8935 8.71909 13.8935 8.46237 13.7349 8.30435C13.5764 8.14578 13.32 8.14578 13.1616 8.30435Z" fill="#999999"/>
</g>
<defs>
<clipPath id="clip0_2402_16387">
<rect width="24" height="24" fill="white"/>
</clipPath>
</defs>
</svg>
