<svg width="24" height="24" viewBox="0 0 24 24" fill="none" xmlns="http://www.w3.org/2000/svg">
<g clip-path="url(#clip0_2402_6744)">
<path d="M12.2113 0H11.7577C8.53142 0 5.90625 2.62518 5.90625 5.85148V17.8222C5.90625 18.9457 6.82013 19.8597 7.94402 19.8597H10.4474V22.7588C10.4474 23.4431 11.0043 23.9999 11.6887 23.9999H12.1025C12.7868 23.9999 13.3436 23.4431 13.3436 22.7588V19.8594H16.0246C17.1483 19.8594 18.0624 18.9453 18.0624 17.8216V5.85148C18.0628 2.62518 15.4376 0 12.2113 0V0ZM12.5165 22.7583C12.5165 22.9866 12.3312 23.1721 12.1029 23.1721H11.6891C11.4607 23.1721 11.2753 22.9866 11.2753 22.7583V19.8621H12.5165V22.7583ZM17.2351 17.8216C17.2351 18.4887 16.692 19.0317 16.025 19.0317H7.94439C7.27752 19.0317 6.73425 18.4887 6.73425 17.8216V5.85148C6.73425 3.08111 8.98791 0.827451 11.7583 0.827451H12.2117C14.9817 0.827451 17.2357 3.08111 17.2357 5.85148V17.8216H17.2351Z" fill="#999999"/>
<path d="M15.4176 8.81598C15.1889 8.81598 15.004 9.00092 15.004 9.22961V11.2707C15.004 11.6678 14.6812 11.9905 14.284 11.9905C13.8868 11.9905 13.564 11.6678 13.564 11.2707V9.22961C13.564 9.00092 13.3791 8.81598 13.1504 8.81598C12.9215 8.81598 12.7366 9.00092 12.7366 9.22961V11.2707C12.7366 12.1241 13.4309 12.8181 14.284 12.8181C15.1371 12.8181 15.8314 12.1238 15.8314 11.2707V9.22961C15.8314 9.00092 15.6465 8.81598 15.4176 8.81598Z" fill="#999999"/>
<path d="M11.4799 14.5047C11.251 14.5047 11.0661 14.6896 11.0661 14.9185V16.0521C11.0661 16.4493 10.7429 16.7721 10.3458 16.7721C9.94861 16.7721 9.62598 16.4493 9.62598 16.0521V14.9185C9.62598 14.6896 9.44104 14.5047 9.21216 14.5047C8.98328 14.5047 8.79834 14.6896 8.79834 14.9185V16.0521C8.79834 16.9058 9.49268 17.5995 10.3458 17.5995C11.1989 17.5995 11.8936 16.9052 11.8936 16.0521V14.9185C11.8936 14.6896 11.7083 14.5047 11.4799 14.5047Z" fill="#999999"/>
<path d="M10.171 8.26648C11.0244 8.26648 11.7182 7.57214 11.7182 6.71906V5.58545C11.7182 5.35657 11.5333 5.17163 11.3046 5.17163C11.0757 5.17163 10.8907 5.35657 10.8907 5.58545V6.71906C10.8907 7.11621 10.5681 7.43903 10.171 7.43903C9.77362 7.43903 9.45099 7.11621 9.45099 6.71906V5.58545C9.45099 5.35657 9.26605 5.17163 9.03717 5.17163C8.80847 5.17163 8.62354 5.35657 8.62354 5.58545V6.71906C8.62317 7.57269 9.31732 8.26648 10.171 8.26648Z" fill="#999999"/>
</g>
<defs>
<clipPath id="clip0_2402_6744">
<rect width="24" height="24" fill="white"/>
</clipPath>
</defs>
</svg>
