<svg width="24" height="24" viewBox="0 0 24 24" fill="none" xmlns="http://www.w3.org/2000/svg">
<g clip-path="url(#clip0_2402_15914)">
<path d="M23.7381 11.4858C23.557 11.2921 23.3016 11.1812 23.0374 11.1812H22.9586C23.3149 10.5677 23.5087 9.87158 23.5087 9.15436C23.5087 7.53754 22.5415 6.08203 21.0734 5.44244C21.0389 3.2373 19.2368 1.45312 17.0238 1.45312C14.811 1.45312 13.0094 3.23621 12.9737 5.44043C12.8911 5.42102 12.8058 5.40967 12.7192 5.40967C12.3588 5.40967 12.0195 5.58563 11.8124 5.87988L11.7116 6.02344C11.6284 6.14081 11.4724 6.18347 11.3419 6.12268L11.1829 6.04889C10.8559 5.89655 10.4745 5.91431 10.1619 6.0943C9.84956 6.27429 9.64393 6.59656 9.61152 6.95526L9.59577 7.12994C9.5901 7.19238 9.56245 7.27954 9.52637 7.37274C9.43354 7.32861 9.36707 7.23779 9.35737 7.12958L9.34162 6.95581C9.31086 6.61523 9.12885 6.33307 8.86811 6.15436L10.1438 4.34418C10.3923 3.99115 10.4886 3.56104 10.4141 3.13385C10.3399 2.70575 10.1048 2.33331 9.75214 2.08484C9.021 1.57013 8.0077 1.74518 7.49281 2.4765L5.15821 5.78979C5.08021 5.90039 5.02271 6.02032 4.97529 6.14355C4.93757 6.1452 4.89747 6.14154 4.85609 6.1225L4.69733 6.04871C4.37012 5.89709 3.98798 5.91449 3.67634 6.09448C3.36414 6.27448 3.1587 6.59637 3.12629 6.95508L3.11054 7.12976C3.09754 7.27368 2.98365 7.38757 2.83973 7.40057L2.66541 7.41632C2.30671 7.44873 1.98444 7.65472 1.80445 7.96637C1.62409 8.27875 1.60706 8.66034 1.75867 8.9881L1.8321 9.1463C1.89289 9.27759 1.85114 9.43323 1.73286 9.51636L1.58967 9.61725C1.29505 9.82526 1.11909 10.1646 1.11909 10.5249C1.11909 10.7651 1.2035 10.9922 1.34284 11.1806H0.9618C0.697578 11.1806 0.442146 11.2917 0.261055 11.4855C0.0781325 11.6808 -0.0161668 11.9467 0.00196062 12.2139C0.242012 15.7593 2.49714 17.5395 5.80988 19.1215C6.17957 19.2982 6.48481 19.5917 6.67011 19.9493C6.85084 20.2987 6.82209 20.7493 6.59138 21.1329C6.41761 21.4215 6.41267 21.7689 6.57838 22.0624C6.74427 22.3557 7.0442 22.5304 7.38111 22.5304H16.6186C16.9553 22.5304 17.2553 22.3553 17.4211 22.0624C17.5869 21.7689 17.5821 21.4215 17.4041 21.1256C17.1774 20.749 17.1492 20.2987 17.3296 19.9497C17.5144 19.5923 17.8196 19.2982 18.1896 19.1215C21.5017 17.5395 23.7573 15.7597 23.9977 12.2142C24.0153 11.9467 23.9205 11.6812 23.7381 11.4858V11.4858ZM22.6984 9.15436C22.6984 9.89209 22.4452 10.6051 21.9819 11.1812H19.8612V9.55975C19.8612 9.33563 19.6799 9.15436 19.4558 9.15436C19.2317 9.15436 19.0504 9.33563 19.0504 9.55975V11.1812H17.6193C17.652 11.1365 17.6804 11.0894 17.7061 11.0409C17.7072 11.0389 17.7088 11.0369 17.7101 11.0347C17.7456 10.9658 17.7712 10.892 17.7919 10.8171C17.7971 10.7985 17.8016 10.7798 17.8057 10.7604C17.8223 10.6833 17.8341 10.6051 17.8341 10.5249C17.8341 10.1642 17.6581 9.82526 17.3638 9.61853L17.2706 9.55243C17.303 9.55042 17.3342 9.5451 17.3662 9.54272C17.4149 9.5387 17.4636 9.53375 17.5118 9.52771C17.5916 9.51782 17.6705 9.50574 17.7489 9.49164C17.7951 9.48303 17.8417 9.47534 17.8875 9.46527C17.9719 9.44696 18.0549 9.42426 18.1373 9.40082C18.1741 9.3902 18.2114 9.38177 18.2479 9.37006C18.3634 9.33307 18.4766 9.29205 18.5872 9.24554C18.6179 9.23254 18.6472 9.21716 18.6771 9.20343C18.7573 9.16736 18.8373 9.13019 18.9146 9.08881C18.958 9.06555 19.0003 9.04047 19.0424 9.01575C19.1043 8.97968 19.166 8.94324 19.2258 8.90387C19.2705 8.87476 19.3143 8.84473 19.3577 8.81396C19.4124 8.77496 19.4663 8.7345 19.519 8.69312C19.5624 8.65906 19.6052 8.62555 19.647 8.58984C19.697 8.54718 19.7444 8.50269 19.7922 8.45801C19.833 8.41992 19.8744 8.3822 19.9138 8.34247C19.9588 8.29669 20.0006 8.24817 20.043 8.2002C20.1238 8.10992 20.2 8.01617 20.2725 7.91858C20.2979 7.88416 20.3252 7.85083 20.3499 7.81512C20.3941 7.75159 20.4347 7.68549 20.4752 7.61975C20.4953 7.58661 20.5164 7.55365 20.536 7.51978C20.5768 7.44873 20.6145 7.37622 20.6509 7.3028C20.6652 7.27368 20.6793 7.24493 20.6931 7.21527C20.7308 7.1347 20.7661 7.05322 20.7985 6.96973C20.8053 6.95178 20.8119 6.93329 20.8183 6.91534C20.8917 6.71796 20.9542 6.51544 20.9963 6.30542C22.0317 6.86517 22.6984 7.95428 22.6984 9.15436ZM17.0238 2.26373C18.8117 2.26373 20.2664 3.71851 20.2664 5.50653C20.2664 5.56769 20.2613 5.62775 20.2576 5.68817C20.2576 5.68817 20.2564 5.69055 20.2564 5.6922C20.2326 6.1181 20.1263 6.52057 19.9544 6.88586C19.9528 6.88953 19.9511 6.89319 19.9495 6.89685C19.9097 6.98071 19.866 7.06183 19.8195 7.14166C19.8138 7.15137 19.8085 7.16107 19.8028 7.17078C19.7594 7.24347 19.7123 7.31396 19.6635 7.38245C19.6528 7.39746 19.6428 7.41248 19.6321 7.42694C19.5864 7.48938 19.5373 7.54944 19.4871 7.60822C19.4714 7.62689 19.4558 7.64594 19.4397 7.66425C19.3923 7.71771 19.3419 7.76843 19.2908 7.8186C19.2698 7.83966 19.2491 7.86072 19.2273 7.88141C19.1786 7.92682 19.1275 7.96948 19.0761 8.01196C19.0497 8.03394 19.0237 8.05609 18.9966 8.07678C18.9468 8.11487 18.8953 8.15057 18.8435 8.18628C18.8122 8.2077 18.7814 8.22968 18.749 8.24982C18.6983 8.28186 18.6461 8.31061 18.5938 8.3399C18.5582 8.35968 18.5225 8.38037 18.4859 8.39905C18.4348 8.42505 18.3823 8.44812 18.3299 8.47119C18.2898 8.48914 18.2501 8.50763 18.2091 8.52356C18.1578 8.5437 18.1049 8.5611 18.0523 8.57867C18.008 8.59369 17.9648 8.60907 17.9197 8.62189C17.8687 8.6369 17.8159 8.64825 17.7637 8.66052C17.7154 8.67188 17.6676 8.68396 17.6185 8.6933C17.568 8.70264 17.5164 8.70886 17.4655 8.716C17.4131 8.72333 17.3613 8.73102 17.3085 8.73596C17.2985 8.73669 17.2878 8.73669 17.2774 8.73761V8.73706C17.2781 8.73193 17.2781 8.72699 17.2791 8.72168C17.2922 8.64844 17.2968 8.5741 17.2952 8.49994C17.2948 8.47614 17.2921 8.45288 17.29 8.42908C17.2851 8.37067 17.2754 8.31354 17.2617 8.25677C17.256 8.23407 17.2516 8.21136 17.2443 8.18903C17.2203 8.11285 17.1906 8.03778 17.1498 7.96729C16.9694 7.65527 16.6475 7.44965 16.2888 7.41742L16.1141 7.40149C16.0067 7.39178 15.9158 7.32568 15.8713 7.23248L16.7374 6.36676C16.896 6.20819 16.896 5.95203 16.7374 5.79364C16.579 5.63507 16.3229 5.63507 16.1645 5.79364L15.5861 6.37207C15.5006 6.26385 15.4 6.16644 15.2775 6.09558C15.1957 6.04816 15.1085 6.01373 15.0194 5.98883C14.9893 5.98041 14.9589 5.97949 14.9285 5.974C14.8677 5.9621 14.8079 5.95129 14.7462 5.95001C14.7385 5.95001 14.7308 5.94672 14.7231 5.94672C14.6764 5.94672 14.6306 5.95569 14.5845 5.96173C14.5557 5.96539 14.527 5.96539 14.4984 5.97107C14.4158 5.9881 14.3347 6.01318 14.2565 6.04926L14.0985 6.12268C14.0579 6.14136 14.0148 6.14868 13.9716 6.14703C13.9691 6.14703 13.967 6.14648 13.9647 6.14648C13.9222 6.14374 13.8795 6.13202 13.8407 6.11041C13.8013 5.90533 13.7814 5.70264 13.7814 5.50653C13.7812 3.71851 15.2356 2.26373 17.0238 2.26373V2.26373ZM10.4031 7.20319L10.419 7.0285C10.4274 6.93036 10.4818 6.84558 10.5673 6.79669C10.6523 6.74762 10.7528 6.74231 10.842 6.78461L11.0018 6.85876C11.4878 7.08325 12.0659 6.92798 12.3742 6.49072L12.4753 6.34717C12.589 6.18549 12.8508 6.18658 12.964 6.3468L13.0651 6.49017C13.2718 6.78333 13.5992 6.94574 13.9394 6.95599H13.9511C14.0002 6.95673 14.0496 6.95599 14.0987 6.95032C14.1218 6.94794 14.1445 6.94263 14.1675 6.9386C14.2007 6.93256 14.2336 6.92798 14.2664 6.91919C14.3248 6.90344 14.3823 6.88348 14.4384 6.85748L14.5967 6.78369C14.6863 6.74249 14.7868 6.74689 14.8716 6.79578C14.9567 6.84521 15.0111 6.92963 15.0195 7.02814L15.0353 7.2019C15.084 7.73621 15.5068 8.15936 16.0405 8.20715L16.2149 8.22308C16.3134 8.23151 16.3981 8.28589 16.4472 8.3714C16.4967 8.45636 16.501 8.55688 16.4597 8.64569L16.3851 8.80627C16.3818 8.8136 16.3807 8.82001 16.3778 8.82733C16.2335 9.15802 16.2636 9.5257 16.4346 9.82324C16.437 9.82727 16.4395 9.83167 16.4419 9.83569C16.4637 9.87268 16.4869 9.90784 16.5131 9.94244C16.5274 9.96149 16.5432 9.97888 16.5587 9.99719C16.5785 10.0199 16.5975 10.0433 16.6193 10.0644C16.6607 10.1054 16.705 10.1439 16.7535 10.1779L16.8975 10.2797C16.9777 10.3372 17.0238 10.4264 17.0238 10.5249C17.0238 10.6234 16.9777 10.7122 16.8975 10.769L16.7532 10.8702C16.7519 10.8712 16.7512 10.8723 16.7495 10.8735C16.6968 10.9113 16.6486 10.9537 16.6036 11.0001C16.5856 11.0182 16.5703 11.0389 16.5536 11.0583C16.5294 11.087 16.5054 11.1163 16.4844 11.1475C16.4763 11.1594 16.4657 11.1694 16.458 11.1815H11.134C11.1668 11.137 11.1952 11.0896 11.2212 11.0409C11.2223 11.0389 11.2236 11.0372 11.2249 11.0352C11.2604 10.966 11.2864 10.8922 11.3071 10.8168C11.3124 10.7981 11.3164 10.78 11.3204 10.7613C11.3375 10.6846 11.3488 10.6064 11.3492 10.5266V10.5258C11.3492 10.4738 11.3378 10.4244 11.3311 10.3738C11.3258 10.3365 11.3265 10.298 11.3171 10.2614C11.2877 10.1407 11.2313 10.0302 11.1641 9.92633C11.0879 9.80914 10.9958 9.70166 10.8786 9.6189L10.7352 9.51764C10.6171 9.43451 10.5759 9.27924 10.6364 9.14886L10.7105 8.98956C10.7466 8.91174 10.7713 8.83026 10.7883 8.74768C10.7936 8.72278 10.7936 8.69824 10.7969 8.67334C10.805 8.61511 10.811 8.55707 10.8098 8.49866C10.809 8.46826 10.8043 8.43823 10.801 8.40784C10.7953 8.35565 10.7883 8.30365 10.7753 8.25275C10.7669 8.21942 10.7556 8.18774 10.7442 8.15533C10.7345 8.1286 10.7296 8.10059 10.7182 8.0744C10.7112 8.05847 10.6992 8.04675 10.6915 8.03174C10.6814 8.01105 10.6761 7.98871 10.6647 7.96857C10.6433 7.93158 10.614 7.90118 10.5886 7.86731C10.5673 7.83893 10.5487 7.80927 10.5252 7.7829C10.4761 7.72815 10.4203 7.68164 10.3619 7.63824C10.3445 7.62524 10.3315 7.60693 10.3134 7.59521C10.3553 7.47198 10.391 7.33649 10.4031 7.20319V7.20319ZM8.15601 2.9436C8.41346 2.57794 8.92048 2.49042 9.28559 2.74786C9.46155 2.87183 9.57911 3.05823 9.61591 3.27228C9.6529 3.48669 9.60548 3.70203 9.48151 3.87744L7.90021 6.1214C7.90021 6.1214 7.89985 6.1214 7.89985 6.12195L7.14637 7.19073C7.02222 7.36707 6.83637 7.48462 6.62232 7.52142C6.40864 7.55713 6.19294 7.51099 6.01697 7.38647C6.01624 7.38611 6.01588 7.38519 6.01496 7.38483C5.9571 7.34381 5.90839 7.29401 5.86427 7.24127C5.85291 7.22791 5.84248 7.21381 5.83186 7.19952C5.7934 7.14642 5.76008 7.09021 5.73536 7.02979C5.73371 7.02576 5.73133 7.02246 5.72968 7.01843C5.70496 6.95435 5.69123 6.8866 5.68317 6.81775C5.68116 6.80035 5.68024 6.78296 5.67915 6.76538C5.67548 6.69653 5.6775 6.6264 5.69215 6.55627C5.71449 6.45007 5.75697 6.34827 5.82087 6.25763L8.15601 2.9436ZM2.19959 10.8699L2.05604 10.7688C1.97547 10.712 1.92933 10.6234 1.92933 10.5245C1.92933 10.4257 1.97547 10.3369 2.05604 10.2797L2.19868 10.179C2.63776 9.87067 2.79267 9.29315 2.56727 8.80499L2.49384 8.64697C2.45209 8.55743 2.45704 8.45691 2.50593 8.3714C2.55537 8.28625 2.63978 8.23187 2.73829 8.22327L2.91224 8.20752C3.44636 8.15973 3.86915 7.73694 3.91785 7.20282L3.9336 7.02814C3.94221 6.92999 3.99641 6.84558 4.08155 6.79614C4.16633 6.74707 4.26722 6.74268 4.35639 6.78406L4.51606 6.85822C4.63197 6.91187 4.75483 6.94299 4.87971 6.9527C4.88081 6.9613 4.88447 6.96973 4.88612 6.97833C4.8874 6.98566 4.88648 6.9928 4.88776 6.99976C4.89582 7.0459 4.91285 7.08856 4.92475 7.13342C4.93848 7.18579 4.94892 7.23889 4.9676 7.28998C4.98994 7.34985 5.0207 7.40533 5.04945 7.4621C5.06904 7.50037 5.08387 7.53955 5.10657 7.57599C5.14631 7.64044 5.19501 7.69885 5.24354 7.75726C5.26423 7.78198 5.28053 7.80908 5.30231 7.8327C5.37702 7.9118 5.45924 7.98468 5.55006 8.04822C5.62989 8.10461 5.71503 8.15076 5.80164 8.19141C5.82929 8.20386 5.85731 8.21411 5.88569 8.22491C5.94758 8.24982 6.01038 8.27087 6.07484 8.28735C6.10725 8.29596 6.13929 8.30402 6.17261 8.31006C6.2411 8.32343 6.31031 8.33112 6.38044 8.33569C6.40681 8.33734 6.43244 8.34137 6.45863 8.34174C6.46558 8.34174 6.47199 8.34338 6.47895 8.34338C6.57252 8.34338 6.66663 8.33533 6.76057 8.31903C7.1883 8.24451 7.56074 8.0094 7.80921 7.65674L8.4054 6.81042C8.47315 6.85547 8.52552 6.92834 8.53431 7.02814L8.55006 7.2019C8.59876 7.73621 9.02155 8.159 9.55531 8.20715L9.72962 8.2229C9.76771 8.2262 9.80103 8.24194 9.83344 8.25787C9.84919 8.26593 9.86512 8.27325 9.87922 8.28406C9.90101 8.30035 9.91895 8.32141 9.93543 8.34338C9.94605 8.35712 9.95777 8.36975 9.96601 8.3855C9.98542 8.42358 9.99915 8.46368 10.0012 8.50507C10.0012 8.50671 10.0008 8.50909 10.0008 8.51074C10.0024 8.55615 9.99384 8.60229 9.97407 8.64514L9.89973 8.80444C9.81513 8.98737 9.78419 9.18256 9.80176 9.37189C9.80213 9.37445 9.80286 9.37683 9.80286 9.37958C9.80909 9.44 9.81916 9.49951 9.83491 9.55829C9.90009 9.80237 10.0486 10.0237 10.2674 10.1777L10.3659 10.2469L10.411 10.2786C10.4919 10.3374 10.5382 10.4262 10.5382 10.5247C10.5382 10.5742 10.5269 10.6207 10.5049 10.6626C10.4988 10.6747 10.4858 10.682 10.4778 10.6934C10.4584 10.7208 10.4397 10.7488 10.411 10.7692L10.4056 10.7726L10.267 10.8701C10.2116 10.9094 10.1605 10.9548 10.1134 11.0034C10.0989 11.0184 10.0872 11.0354 10.0737 11.0508C10.0429 11.0865 10.0133 11.1229 9.98688 11.1623C9.98249 11.1687 9.97645 11.1744 9.97242 11.1808H2.49512C2.41767 11.0596 2.31751 10.9528 2.19959 10.8699ZM17.8401 18.39C17.312 18.6422 16.8751 19.0637 16.6091 19.5771C16.2998 20.1746 16.3384 20.928 16.7133 21.5506C16.7409 21.5969 16.7296 21.6374 16.7145 21.663C16.7001 21.6885 16.6715 21.7198 16.6177 21.7198H7.38093C7.32746 21.7198 7.29871 21.689 7.28406 21.663C7.2696 21.6374 7.2577 21.5969 7.28974 21.5435C7.66071 20.9277 7.69916 20.1742 7.3899 19.5764C7.1244 19.0627 6.68696 18.6412 6.15925 18.3895C3.01588 16.8889 1.02497 15.3232 0.810921 12.1595C0.806892 12.0991 0.836006 12.0582 0.853584 12.0392C0.873726 12.0172 0.909065 11.9918 0.962166 11.9918H23.0375C23.0903 11.9918 23.1256 12.0172 23.1463 12.0392C23.1637 12.0582 23.1928 12.0987 23.1884 12.1595C22.9742 15.3232 20.9831 16.8889 17.8401 18.39V18.39Z" fill="#999999"/>
<path d="M14.9971 18.8824H11.4679C11.2441 18.8824 11.0625 19.0636 11.0625 19.2878C11.0625 19.5119 11.2441 19.6931 11.4679 19.6931H14.9971C15.2208 19.6931 15.4025 19.5119 15.4025 19.2878C15.4025 19.0636 15.2208 18.8824 14.9971 18.8824Z" fill="#999999"/>
<path d="M8.91711 19.6931H10.2895C10.5132 19.6931 10.6949 19.5119 10.6949 19.2878C10.6949 19.0636 10.5132 18.8824 10.2895 18.8824H8.91711C8.69336 18.8824 8.51172 19.0636 8.51172 19.2878C8.5119 19.5119 8.69299 19.6931 8.91711 19.6931Z" fill="#999999"/>
<path d="M14.9971 20.0984H8.91711C8.69336 20.0984 8.51172 20.2797 8.51172 20.5038C8.51172 20.7279 8.69336 20.9092 8.91711 20.9092H14.9971C15.2209 20.9092 15.4025 20.7279 15.4025 20.5038C15.4025 20.2797 15.2209 20.0984 14.9971 20.0984Z" fill="#999999"/>
<path d="M16.1645 5.21997C16.2436 5.29907 16.3472 5.33862 16.451 5.33862C16.5548 5.33862 16.6585 5.29889 16.7376 5.21997C16.8961 5.0614 16.8961 4.80524 16.7376 4.64685L15.591 3.50061C15.4324 3.34204 15.1762 3.34204 15.0179 3.50061C14.8593 3.659 14.8593 3.91516 15.0179 4.07355L16.1645 5.21997Z" fill="#999999"/>
<path d="M18.457 7.51248C18.5361 7.59158 18.64 7.63132 18.7438 7.63132C18.8474 7.63132 18.9512 7.59158 19.0303 7.51248C19.1887 7.35391 19.1884 7.09775 19.0303 6.93936L17.8836 5.79312C17.7252 5.63455 17.469 5.63455 17.3104 5.79312C17.1521 5.95151 17.1521 6.20767 17.3104 6.36624L18.457 7.51248Z" fill="#999999"/>
<path d="M17.5972 5.33862C17.701 5.33862 17.8048 5.29889 17.8839 5.21997L19.0306 4.07355C19.1886 3.91516 19.1891 3.659 19.0306 3.50061C18.872 3.34204 18.6158 3.34204 18.4574 3.50061L17.3108 4.64685C17.1523 4.80524 17.1523 5.0614 17.3108 5.21997C17.3897 5.29889 17.4936 5.33862 17.5972 5.33862Z" fill="#999999"/>
<path d="M19.8616 8.74918C19.8616 8.9733 20.0427 9.15439 20.2668 9.15439H21.8882C22.1123 9.15439 22.2936 8.9733 22.2936 8.74918C22.2936 8.52505 22.1123 8.34378 21.8882 8.34378H20.2668C20.0427 8.34378 19.8616 8.52505 19.8616 8.74918V8.74918Z" fill="#999999"/>
<path d="M12.3628 8.95181C12.4666 8.95181 12.5705 8.91208 12.6494 8.83298L13.2575 8.22507C13.416 8.0665 13.416 7.81033 13.2575 7.65195C13.0989 7.49338 12.8427 7.49338 12.6844 7.65195L12.0764 8.25986C11.9179 8.41843 11.9179 8.67459 12.0764 8.83298C12.1554 8.91208 12.259 8.95181 12.3628 8.95181Z" fill="#999999"/>
<path d="M14.3056 9.84634C14.3847 9.92545 14.4886 9.96518 14.5922 9.96518C14.696 9.96518 14.7997 9.92545 14.8788 9.84634C15.0373 9.68796 15.0373 9.43179 14.8788 9.27322L14.4735 8.86801C14.315 8.70944 14.0588 8.70944 13.9004 8.86801C13.7419 9.0264 13.7419 9.28256 13.9004 9.44113L14.3056 9.84634Z" fill="#999999"/>
<path d="M12.6845 9.67859L12.2791 10.0838C12.1205 10.2424 12.1205 10.4985 12.2791 10.6569C12.3582 10.736 12.4618 10.7758 12.5656 10.7758C12.6695 10.7758 12.7731 10.736 12.8522 10.6569L13.2576 10.2517C13.4162 10.0931 13.4162 9.83698 13.2576 9.67859C13.099 9.52002 12.8425 9.52002 12.6845 9.67859V9.67859Z" fill="#999999"/>
</g>
<defs>
<clipPath id="clip0_2402_15914">
<rect width="24" height="24" fill="white"/>
</clipPath>
</defs>
</svg>
